<svg xmlns="http://www.w3.org/2000/svg" width="180" height="180" version="1.2"><style>.b{fill:#9a2500}.c{fill:#c87201;stroke:#c87201;stroke-linecap:round;stroke-linejoin:round;stroke-width:1.3}.f{fill:#fff}</style><path d="M180 0v180H0V0z" style="fill:#1e7eae"/><path d="M78.2 87.8v4.4H31.9v-4.4z" class="b"/><path d="M35.5 90c0 1.8-3.7 3.2-8.3 3.2-4.5 0-8.2 0-8.2-3.2s3.7-3.2 8.2-3.2c4.6 0 8.3 1.4 8.3 3.2z" class="c"/><path d="M92.2 78.2h-4.4V31.9h4.4z" class="b"/><path d="M90 35.5c-1.8 0-3.2-3.7-3.2-8.3 0-4.5 0-8.2 3.2-8.2s3.2 3.7 3.2 8.2c0 4.6-1.4 8.3-3.2 8.3z" class="c"/><path d="M87.8 101.8h4.4v46.3h-4.4z" class="b"/><path d="M90 144.5c1.8 0 3.2 3.7 3.2 8.3 0 4.5 0 8.2-3.2 8.2s-3.2-3.7-3.2-8.2c0-4.6 1.4-8.3 3.2-8.3z" class="c"/><path d="M101.8 92.2v-4.4h46.3v4.4z" class="b"/><path d="M144.5 90c0-1.8 3.7-3.2 8.3-3.2 4.5 0 8.2 0 8.2 3.2s-3.7 3.2-8.2 3.2c-4.6 0-8.3-1.4-8.3-3.2z" class="c"/><path d="m83.2 80.1-3.1 3.1-32.7-32.8 3-3zM52.8 52.7" class="b"/><path d="M51.4 51.4c-1.2 1.3-4.8-.3-8.1-3.5-3.2-3.2-5.8-5.8-3.5-8.1s4.9.3 8.1 3.5c3.2 3.3 4.8 6.9 3.5 8.1z" class="c"/><path d="m99.9 83.2-3.1-3.1 32.8-32.7 3 3z" class="b"/><path d="M128.6 51.4c-1.3-1.2.3-4.8 3.5-8.1 3.2-3.2 5.8-5.8 8.1-3.5s-.3 4.9-3.5 8.1c-3.3 3.2-6.9 4.8-8.1 3.5z" class="c"/><path d="m80.1 96.8 3.1 3.1-32.8 32.7-3-3z" class="b"/><path d="M51.4 128.6c1.3 1.2-.3 4.8-3.5 8.1-3.2 3.2-5.8 5.8-8.1 3.5s.3-4.9 3.5-8.1c3.3-3.2 6.9-4.8 8.1-3.5z" class="c"/><path d="m96.8 99.9 3.1-3.1 32.7 32.8-3 3z" class="b"/><path d="M128.6 128.6c1.2-1.3 4.8.3 8.1 3.5 3.2 3.2 5.8 5.8 3.5 8.1s-4.9-.3-8.1-3.5c-3.2-3.3-4.8-6.9-3.5-8.1z" class="c"/><path d="M41 86.8h9.7c1.8 0 23.2 1.4 23.2 3.2 0 1.8-21.4 3.2-23.2 3.2H41c-1.8 0-3.2-1.4-3.2-3.2 0-1.8 1.4-3.2 3.2-3.2zm98 6.4h-9.7c-1.8 0-23.2-1.4-23.2-3.2 0-1.8 21.4-3.2 23.2-3.2h9.7c1.8 0 3.2 1.4 3.2 3.2 0 1.8-1.4 3.2-3.2 3.2zM86.8 139v-9.7c0-1.8 1.4-23.2 3.2-23.2 1.8 0 3.2 21.4 3.2 23.2v9.7c0 1.8-1.4 3.2-3.2 3.2-1.8 0-3.2-1.4-3.2-3.2zm6.4-98v9.7c0 1.8-1.4 23.2-3.2 23.2-1.8 0-3.2-21.4-3.2-23.2V41c0-1.8 1.4-3.2 3.2-3.2 1.8 0 3.2 1.4 3.2 3.2zm-40.1 81.4 6.8-6.9c1.3-1.2 17.5-15.4 18.7-14.1 1.3 1.2-12.9 17.4-14.1 18.7l-6.9 6.8c-1.2 1.3-3.3 1.3-4.5 0-1.3-1.2-1.3-3.3 0-4.5zm73.8-64.8-6.8 6.9c-1.3 1.2-17.5 15.4-18.7 14.1-1.3-1.2 12.9-17.4 14.1-18.7l6.9-6.8c1.2-1.3 3.3-1.3 4.5 0 1.3 1.2 1.3 3.3 0 4.5zm-4.5 69.3-6.9-6.8c-1.2-1.3-15.4-17.5-14.1-18.7 1.2-1.3 17.4 12.9 18.7 14.1l6.8 6.9c1.3 1.2 1.3 3.3 0 4.5-1.2 1.3-3.3 1.3-4.5 0zM57.6 53.1l6.9 6.8c1.2 1.3 15.4 17.5 14.1 18.7-1.2 1.3-17.4-12.9-18.7-14.1l-6.8-6.9c-1.3-1.2-1.3-3.3 0-4.5 1.2-1.3 3.3-1.3 4.5 0z" class="b"/><path d="M90 99.7c-5.4 0-9.7-4.3-9.7-9.7 0-5.4 4.3-9.7 9.7-9.7 5.4 0 9.7 4.3 9.7 9.7 0 5.4-4.3 9.7-9.7 9.7z" style="fill:none;stroke:#9a2500;stroke-linecap:round;stroke-linejoin:round;stroke-width:9"/><path d="M90 133c-23.8 0-43-19.2-43-43s19.2-43 43-43 43 19.2 43 43-19.2 43-43 43z" style="fill:none;stroke:#c87201;stroke-linecap:round;stroke-linejoin:round;stroke-width:13"/><path d="M105.6 157.2 47.8 83l13.4-10.5 57.9 74.2c1.7 2.2 1.3 5.3-.9 7l-5.5 4.3c-2.2 1.7-5.4 1.4-7.1-.8z" class="f"/><path d="M56.5 93.4c-1.1-3.2-26.4-1.3-32.1-14.4-7.1-16.3-7.2-26.3-2.2-21.8 4.1 3.7 15.3 20.4 18.9 20.8 5.1.7 12.5-4.8 13.5-7m1.9 22.4c-1.1-3.2-26.4-1.3-32.1-14.4-7.1-16.3-7.2-26.3-2.2-21.8 4.1 3.7 14.9 22 18.9 20.8 6.4-1.8 12.5-4.8 13.5-7" class="f"/><path d="M68.9 83.7c-2.8-1.8 5.1-25.9-6.2-34.6C48.6 38.3 39 35.8 42.1 41.7c2.6 4.9 16.1 19.8 15.6 23.4-.6 5-7.8 11-10.1 11.4m21.3 7.2c-2.8-1.8 5.1-25.9-6.2-34.6C48.6 38.3 39 35.8 42.1 41.7c2.6 4.9 17.7 19.7 15.6 23.4-3.3 5.8-7.8 11-10.1 11.4M112.4 161.8c-4.6-.6-8-4.8-7.4-9.5.6-4.7 4.8-8 9.5-7.4 4.7.6 8 4.8 7.4 9.5 0 0-.2 2-3.8 4.8-3.7 2.9-5.7 2.6-5.7 2.6z" class="f"/></svg>
