<svg xmlns="http://www.w3.org/2000/svg" width="136" height="136" style="filter:url(#shadow)" version="1.2" viewBox="-14 -14 164 164"><filter id="shadow"><feDropShadow dx="0" dy="0" stdDeviation="1.5"/><feDropShadow dx="0" dy="0" stdDeviation="1.5"/><feDropShadow dx="0" dy="0" stdDeviation="1.5"/></filter><style>.a{fill:#9a2500}.b{fill:#c87201;stroke:#c87201;stroke-linecap:round;stroke-linejoin:round;stroke-width:1.3}</style><path d="M57 66v4H14v-4z" class="a"/><path d="M17.3 68c0 1.7-3.4 3-7.6 3C5.4 71 2 71 2 68s3.4-3 7.7-3c4.2 0 7.6 1.3 7.6 3z" class="b"/><path d="M70 57h-4V14h4z" class="a"/><path d="M68 17.3c-1.7 0-3-3.4-3-7.6C65 5.4 65 2 68 2s3 3.4 3 7.7c0 4.2-1.3 7.6-3 7.6z" class="b"/><path d="M66 79h4v43h-4z" class="a"/><path d="M68 118.7c1.7 0 3 3.4 3 7.6 0 4.3 0 7.7-3 7.7s-3-3.4-3-7.7c0-4.2 1.3-7.6 3-7.6z" class="b"/><path d="M79 70v-4h43v4z" class="a"/><path d="M118.7 68c0-1.7 3.4-3 7.6-3 4.3 0 7.7 0 7.7 3s-3.4 3-7.7 3c-4.2 0-7.6-1.3-7.6-3z" class="b"/><path d="m61.6 58.8-2.8 2.8-30.4-30.4 2.8-2.8zM33.3 33.3" class="a"/><path d="M32.2 32.2c-1.2 1.1-4.6-.3-7.6-3.3s-5.4-5.4-3.3-7.6c2.2-2.1 4.6.3 7.6 3.3s4.4 6.4 3.3 7.6z" class="b"/><path d="m77.2 61.6-2.8-2.8 30.4-30.4 2.8 2.8z" class="a"/><path d="M103.8 32.2c-1.1-1.2.3-4.6 3.3-7.6s5.4-5.4 7.6-3.3c2.1 2.2-.3 4.6-3.3 7.6s-6.4 4.4-7.6 3.3z" class="b"/><path d="m58.8 74.4 2.8 2.8-30.4 30.4-2.8-2.8z" class="a"/><path d="M32.2 103.8c1.1 1.2-.3 4.6-3.3 7.6s-5.4 5.4-7.6 3.3c-2.1-2.2.3-4.6 3.3-7.6s6.4-4.4 7.6-3.3z" class="b"/><path d="m74.4 77.2 2.8-2.8 30.4 30.4-2.8 2.8z" class="a"/><path d="M103.8 103.8c1.2-1.1 4.6.3 7.6 3.3s5.4 5.4 3.3 7.6c-2.2 2.1-4.6-.3-7.6-3.3s-4.4-6.4-3.3-7.6z" class="b"/><path d="M22.4 65h9c1.7 0 21.6 1.3 21.6 3s-19.9 3-21.6 3h-9c-1.6 0-3-1.3-3-3s1.4-3 3-3zm91.2 6h-9c-1.7 0-21.6-1.3-21.6-3s19.9-3 21.6-3h9c1.6 0 3 1.3 3 3s-1.4 3-3 3zM65 113.6v-9c0-1.7 1.3-21.6 3-21.6s3 19.9 3 21.6v9c0 1.6-1.3 3-3 3s-3-1.4-3-3zm6-91.2v9c0 1.7-1.3 21.6-3 21.6s-3-19.9-3-21.6v-9c0-1.6 1.3-3 3-3s3 1.4 3 3zM33.7 98.1l6.3-6.4c1.2-1.1 16.2-14.3 17.4-13.1 1.2 1.2-12 16.2-13.1 17.4l-6.4 6.3c-1.2 1.2-3.1 1.2-4.2 0-1.2-1.1-1.2-3 0-4.2zm68.6-60.2L96 44.3c-1.2 1.1-16.2 14.3-17.4 13.1-1.2-1.2 12-16.2 13.1-17.4l6.4-6.3c1.2-1.2 3.1-1.2 4.2 0 1.2 1.1 1.2 3 0 4.2zm-4.2 64.4L91.7 96c-1.1-1.2-14.3-16.2-13.1-17.4 1.2-1.2 16.2 12 17.4 13.1l6.3 6.4c1.2 1.2 1.2 3.1 0 4.2-1.1 1.2-3 1.2-4.2 0zM37.9 33.7l6.4 6.3c1.1 1.2 14.3 16.2 13.1 17.4-1.2 1.2-16.2-12-17.4-13.1l-6.3-6.4c-1.2-1.2-1.2-3.1 0-4.2 1.1-1.2 3-1.2 4.2 0z" class="a"/><path d="M68 77c-5 0-9-4-9-9s4-9 9-9 9 4 9 9-4 9-9 9z" style="fill:none;stroke:#9a2500;stroke-linecap:round;stroke-linejoin:round;stroke-width:9"/><path d="M68 108c-22.1 0-40-17.9-40-40s17.9-40 40-40 40 17.9 40 40-17.9 40-40 40z" style="fill:none;stroke:#c87201;stroke-linecap:round;stroke-linejoin:round;stroke-width:13"/></svg>
